<svg xmlns="http://www.w3.org/2000/svg" width="18" height="19.823" viewBox="0 0 18 19.823"><g transform="translate(-4 -4.08)"><g transform="translate(10.26 21.582)"><path d="M14.74,19.38a2.778,2.778,0,0,1-5.48,0h1.55a1.273,1.273,0,0,0,2.38,0Z" transform="translate(-9.26 -19.38)" fill="#00c9b1"/></g><g transform="translate(4 4.08)"><path d="M20.875,19.295h-.247V13.129a5.7,5.7,0,0,0-.045-.8C20.256,7.706,16.926,4.08,13,4.08s-7.256,3.626-7.582,8.2a6.864,6.864,0,0,0-.045.847v6.166H5.125a1.144,1.144,0,0,0,0,2.288h15.75a1.144,1.144,0,0,0,0-2.288Zm-13.253,0V13.129c0-.206.011-.4.034-.641C7.9,9.056,10.244,6.368,13,6.368s5.1,2.688,5.344,6.166a5.123,5.123,0,0,1,.034.595v6.166Z" transform="translate(-4 -4.08)" fill="#2f4159"/></g></g></svg>