<svg xmlns="http://www.w3.org/2000/svg" width="18" height="18" viewBox="0 0 18 18"><g opacity="0.85"><g transform="translate(0 3)"><path d="M3.948,20.246A.27.27,0,0,1,3.75,20V7.56a.81.81,0,0,1,.81-.81H16.44a.81.81,0,0,1,.81.81v9.8a.81.81,0,0,1-.81.81H6.2L4.181,20.178A.263.263,0,0,1,4,20.25.22.22,0,0,1,3.948,20.246Zm.3-2.576h12.5V7.25H4.25Z" transform="translate(-3 -6)" fill="#212121"/><path d="M4.886,18.42,4.5,18.8V18.42h.386M16.44,6H4.56A1.562,1.562,0,0,0,3,7.56V20a.987.987,0,0,0,.62.92A.839.839,0,0,0,4,21a1.024,1.024,0,0,0,.71-.29l1.8-1.79h9.93A1.562,1.562,0,0,0,18,17.36V7.56A1.562,1.562,0,0,0,16.44,6ZM5,16.92V8H16v8.92Z" transform="translate(-3 -6)" fill="#212121"/></g><g transform="translate(2.729)"><path d="M18.448,3H6.729a1,1,0,0,0,0,2H18.448A.553.553,0,0,1,19,5.552v9.9a1,1,0,1,0,2,0v-9.9A2.555,2.555,0,0,0,18.448,3Z" transform="translate(-5.729 -3)" fill="#212121"/></g><g transform="translate(3.25 7.25)"><path d="M14,11.75H7a.75.75,0,0,1,0-1.5h7a.75.75,0,0,1,0,1.5Z" transform="translate(-6.25 -10.25)" fill="#212121"/></g><g transform="translate(3.25 10.25)"><path d="M14,14.75H7a.75.75,0,0,1,0-1.5h7a.75.75,0,0,1,0,1.5Z" transform="translate(-6.25 -13.25)" fill="#212121"/></g></g></svg>