<svg xmlns="http://www.w3.org/2000/svg" xmlns:xlink="http://www.w3.org/1999/xlink" viewBox="0 0 16.7 29.3"><defs><style>.cls-1{fill:url(#linear-gradient);}.cls-2{fill:url(#linear-gradient-2);}.cls-3{clip-path:url(#clip-path);}.cls-4{fill:url(#linear-gradient-4);}.cls-5{clip-path:url(#clip-path-2);}.cls-6{fill:url(#linear-gradient-6);}</style><linearGradient id="linear-gradient" y1="8.48" x2="11.02" y2="8.48" gradientUnits="userSpaceOnUse"><stop offset="0" stop-color="#fff"/><stop offset="1" stop-color="#b92b27"/></linearGradient><linearGradient id="linear-gradient-2" x1="5.4" y1="20.59" x2="16.32" y2="20.59" xlink:href="#linear-gradient"/><clipPath id="clip-path" transform="translate(0.24 0.07)"><path class="cls-1" d="M8.76.63.36,13.32l-.3.61c-.2.79.1,1.6.8,1.7l4.8,1.3a1.29,1.29,0,0,0,1.5-1.11L11,1.72c.2-.8-.1-1.6-.8-1.7h-.3a1,1,0,0,0-1.1.61"/></clipPath><linearGradient id="linear-gradient-4" x1="-309.94" y1="394.16" x2="-308.94" y2="394.16" gradientTransform="translate(-9730.85 -7630.97) rotate(-90) scale(24.7)" xlink:href="#linear-gradient"/><clipPath id="clip-path-2" transform="translate(0.24 0.07)"><path class="cls-2" d="M9.26,13.22l-3.8,14.1c-.2.8.1,1.6.8,1.71a1.22,1.22,0,0,0,1.3-.6L16,15.73l.3-.6c.2-.8-.1-1.6-.8-1.7l-4.7-1.31h-.3a1.48,1.48,0,0,0-1.2,1.1"/></clipPath><linearGradient id="linear-gradient-6" x1="-313.82" y1="396.89" x2="-312.82" y2="396.89" gradientTransform="translate(-7876.2 -6206.95) rotate(-90) scale(19.87)" xlink:href="#linear-gradient"/></defs><g id="Layer_2" data-name="Layer 2"><g id="Layer_1-2" data-name="Layer 1"><path class="cls-1" d="M8.76.63.36,13.32l-.3.61c-.2.79.1,1.6.8,1.7l4.8,1.3a1.29,1.29,0,0,0,1.5-1.11L11,1.72c.2-.8-.1-1.6-.8-1.7h-.3a1,1,0,0,0-1.1.61" transform="translate(0.24 0.07)"/><g class="cls-3"><rect class="cls-4" width="11.2" height="17.1"/></g><path class="cls-2" d="M9.26,13.22l-3.8,14.1c-.2.8.1,1.6.8,1.71a1.22,1.22,0,0,0,1.3-.6L16,15.73l.3-.6c.2-.8-.1-1.6-.8-1.7l-4.7-1.31h-.3a1.48,1.48,0,0,0-1.2,1.1" transform="translate(0.24 0.07)"/><g class="cls-5"><rect class="cls-6" x="5.5" y="12.2" width="11.2" height="17.1"/></g></g></g></svg>