<svg xmlns="http://www.w3.org/2000/svg" width="19.999" height="19" viewBox="0 0 19.999 19"><g transform="translate(-13.541 -77.49)"><path d="M33.29,87.15a.992.992,0,0,1-.75.34.973.973,0,0,1-.66-.25l-8.34-7.42L15.2,87.24a1,1,0,0,1-1.41-.09,1,1,0,0,1,.09-1.41l8.99-8a.754.754,0,0,1,.28-.17,1.093,1.093,0,0,1,.17-.05.9.9,0,0,1,.46,0,.984.984,0,0,1,.16.05.811.811,0,0,1,.28.17l8.99,8A1.007,1.007,0,0,1,33.29,87.15Z" fill="#00c9b1"/><path d="M23.53,83.49a3,3,0,1,0,3,3A3,3,0,0,0,23.53,83.49Zm0,4a1,1,0,1,1,1-1A1,1,0,0,1,23.53,87.49Z" fill="#fff"/><path d="M30.53,88.49v7a1,1,0,0,1-1,1h-4a1,1,0,0,1-1-1v-2h-2v2a1,1,0,0,1-1,1H17.54a1,1,0,0,1-1-1v-7a1,1,0,0,1,2,0v6h1.99v-2a1,1,0,0,1,1-1h4a1,1,0,0,1,1,1v2h2v-6a1,1,0,0,1,2,0Z" fill="#00c9b1"/></g></svg>
