<svg xmlns="http://www.w3.org/2000/svg" xmlns:xlink="http://www.w3.org/1999/xlink" width="16" height="18" viewBox="0 0 16 18"><defs><clipPath id="a"><path d="M19.64,12.155a1.219,1.219,0,0,1-1.1.695H15.391v6.031a1.21,1.21,0,0,1-1.213,1.206H9.328a1.21,1.21,0,0,1-1.213-1.206V12.85H4.963a1.208,1.208,0,0,1-.941-1.969l2.028-2.5,3.813-4.7.951-1.168a1.25,1.25,0,0,1,1.882,0l.951,1.168,4.9,6.041.941,1.158A1.218,1.218,0,0,1,19.64,12.155Z" transform="translate(-3.753 -2.088)" fill="#00c9b1"/></clipPath></defs><g clip-path="url(#a)"><path d="M5.659,3.3a.146.146,0,0,1-.132.083H5.15V4.1A.145.145,0,0,1,5,4.247H4.422A.145.145,0,0,1,4.277,4.1V3.379H3.9a.145.145,0,0,1-.113-.236l.243-.3.457-.564.114-.14a.15.15,0,0,1,.226,0l.114.14L5.528,3l.113.139A.146.146,0,0,1,5.659,3.3Z" transform="translate(3.287 5.833)" fill="#2f4159" opacity="0"/><path d="M19.485,10.881,12.694,2.515a1.25,1.25,0,0,0-1.882,0L4.022,10.881a1.208,1.208,0,0,0,.941,1.969H8.116v6.031a1.21,1.21,0,0,0,1.213,1.206h4.851a1.21,1.21,0,0,0,1.213-1.206V12.85h3.153a1.208,1.208,0,0,0,.941-1.969Zm-6.519-.444v7.238H10.541V10.437H7.5l4.249-5.25L16,10.437Z" transform="translate(-3.753 -2.088)" opacity="0.75"/></g></svg>