<svg id="Layer_1" height="512" viewBox="0 0 512 512" width="512" xmlns="http://www.w3.org/2000/svg" data-name="Layer 1"><path d="m379.01 17.54-209.86-.54-.02.02-64.28 66.24-.64 301.7a28.946 28.946 0 0 0 28.85 29.04h245.11a28.953 28.953 0 0 0 28.85-28.92l.77-338.535a28.908 28.908 0 0 0 -28.78-29.005z" fill="#eed0be"/><path d="m375.78 326.95a11.581 11.581 0 0 1 0 12.75l-4.66 7.08a11.571 11.571 0 0 0 -1.89 7.02l.47 8.56a11.587 11.587 0 0 1 -6.34 10.97l-7.57 3.84a11.532 11.532 0 0 0 -5.11 5.11l-3.83 7.59a11.538 11.538 0 0 1 -10.96 6.34l-8.55-.47c-.44-.02-.88-.02-1.31 0a11.522 11.522 0 0 0 -5.69 1.9l-7.07 4.67a11.565 11.565 0 0 1 -12.74 0l-7.06-4.67a11.591 11.591 0 0 0 -5.7-1.9c-.43-.02-.87-.02-1.31 0l-8.55.47a11.562 11.562 0 0 1 -10.96-6.34l-3.82-7.59a11.633 11.633 0 0 0 -5.11-5.11l-7.58-3.84a11.562 11.562 0 0 1 -6.33-10.97l.47-8.56a11.648 11.648 0 0 0 -1.9-7.02l-4.66-7.08a11.619 11.619 0 0 1 0-12.75l4.66-7.08a11.6 11.6 0 0 0 1.9-7.01l-.47-8.56a11.567 11.567 0 0 1 6.33-10.98l7.58-3.83a11.655 11.655 0 0 0 5.11-5.12l3.82-7.59a11.582 11.582 0 0 1 10.96-6.34l8.55.47a11.549 11.549 0 0 0 7.01-1.9l7.06-4.66a11.565 11.565 0 0 1 12.74 0l7.07 4.66a11.5 11.5 0 0 0 7 1.9l8.55-.47a11.573 11.573 0 0 1 10.96 6.34l3.83 7.59a11.554 11.554 0 0 0 5.11 5.12l7.57 3.83a11.592 11.592 0 0 1 6.34 10.98l-.47 8.56a11.523 11.523 0 0 0 1.89 7.01z" fill="#f3e08c"/><path d="m341.84 394.99a11.638 11.638 0 0 1 -5.9 1.22l-8.575-.47c-.44-.02-.913-.02-1.342 0l-.023.28v86.79l-.17.4 16.17 11.79v-99.88z" fill="#ddca7a"/><path d="m306.9 286.1a47.225 47.225 0 1 1 -47.16 47.23 47.2 47.2 0 0 1 47.16-47.23z" fill="#eb6141"/><path d="m326.04 396.02v86.79l-.29.4-18.85-13.85-18.85 13.85-.29-.4v-86.79l.01-.28a11.591 11.591 0 0 1 5.7 1.9l7.06 4.67a11.565 11.565 0 0 0 12.74 0l7.07-4.67a11.522 11.522 0 0 1 5.69-1.9z" fill="#94ce74"/><path d="m288 482.81v-86.79l-.11-.28c-.43-.02-.93-.02-1.37 0l-8.58.47a11.489 11.489 0 0 1 -5.86-1.22l-.08.13v99.88l16.165-11.79z" fill="#ddca7a"/><path d="m134.21 384.96.59-332.566-29.95 30.866-.64 301.7a28.946 28.946 0 0 0 28.85 29.04h30a28.946 28.946 0 0 1 -28.85-29.04z" fill="#d1b3a3"/><path d="m289.74 333.33a47.224 47.224 0 0 1 32.16-44.776 47.225 47.225 0 1 0 0 89.542 47.219 47.219 0 0 1 -32.16-44.766z" fill="#ce543c"/><path d="m330.3 326.1-11.7 11.42 2.76 16.13-14.46-7.62-14.46 7.62 2.76-16.13-11.7-11.42 16.17-2.35 7.23-14.67 7.23 14.67z" fill="#94ce74"/><path d="m104.85 83.06 64.28-66.04-.14 47.19a19.237 19.237 0 0 1 -19.29 19.2l-44.85-.15z" fill="#ba8e75"/><g fill="#264060"><path d="m133.06 420h132.94v75a6 6 0 0 0 9.559 4.835l31.341-23.035 31.343 23.032a6.183 6.183 0 0 0 6.363.519 6.1 6.1 0 0 0 3.394-5.351v-75h30.171a35 35 0 0 0 34.85-34.9l.77-338.539a34.951 34.951 0 0 0 -34.764-35.017l-209.866-.544h-.015a6 6 0 0 0 -4.3 1.815l-64.291 66.056a6 6 0 0 0 -1.7 4.172l-.645 301.811a35.026 35.026 0 0 0 34.85 35.146zm148.94 60.389-4 2.756v-80.935s.283 0 .361 0l3.639-.194zm38-8.819-9.568-7.048a5.8 5.8 0 0 0 -6.973 0l-9.459 7.048v-66.548l3.349 2.291a17.343 17.343 0 0 0 19.235 0l3.416-2.291zm16 11.575-4-2.757v-78.376l3.638.194h.362zm9.32-103.564-3.826 7.587a5.553 5.553 0 0 1 -5.275 3.056l-8.547-.471a17.657 17.657 0 0 0 -10.642 2.879l-7.066 4.667a5.552 5.552 0 0 1 -6.124 0l-7.069-4.667a17.679 17.679 0 0 0 -9.692-2.905c-.315 0-.632.008-.947.026l-8.548.471a5.561 5.561 0 0 1 -5.273-3.056l-3.829-7.588a17.472 17.472 0 0 0 -7.757-7.768l-7.578-3.833a5.585 5.585 0 0 1 -3.05-5.293l.47-8.562a17.72 17.72 0 0 0 -2.873-10.641l-4.66-7.079a5.591 5.591 0 0 1 0-6.155l4.659-7.078a17.72 17.72 0 0 0 2.874-10.643l-.47-8.561a5.585 5.585 0 0 1 3.05-5.293l7.579-3.834a17.7 17.7 0 0 0 7.757-7.768l3.828-7.588a5.571 5.571 0 0 1 5.272-3.055l8.55.472a17.652 17.652 0 0 0 10.638-2.88l7.07-4.667a5.547 5.547 0 0 1 6.123 0l7.067 4.667a17.65 17.65 0 0 0 10.641 2.88l8.547-.472a5.609 5.609 0 0 1 5.274 3.056l3.827 7.586a17.7 17.7 0 0 0 7.758 7.77l7.576 3.832a5.587 5.587 0 0 1 3.053 5.294l-.471 8.56a17.722 17.722 0 0 0 2.872 10.643l4.661 7.079a5.591 5.591 0 0 1 0 6.155l-4.661 7.079a17.723 17.723 0 0 0 -2.872 10.642l.471 8.56a5.585 5.585 0 0 1 -3.053 5.294l-7.576 3.834a17.459 17.459 0 0 0 -7.758 7.768zm-182.231-347.859-.095 32.314a12.9 12.9 0 0 1 -13.232 12.964h-.046l-30.9.1zm-52.247 57.378 38.833-.1h.088a24.9 24.9 0 0 0 25.231-24.878l.121-41.158 203.885.551a22.91 22.91 0 0 1 22.794 22.957l-.77 338.591a22.992 22.992 0 0 1 -22.853 22.937h-30.171v-9.879a14.856 14.856 0 0 0 4.31-5.548l3.776-7.589a5.555 5.555 0 0 1 2.435-2.463l7.563-3.833a17.582 17.582 0 0 0 9.611-16.661l-.473-8.561a5.622 5.622 0 0 1 .912-3.384l4.659-7.082a17.585 17.585 0 0 0 0-19.353l-4.66-7.078a5.633 5.633 0 0 1 -.913-3.385l.47-8.562a17.591 17.591 0 0 0 -9.617-16.659l-7.577-3.833a5.6 5.6 0 0 1 -2.46-2.465l-3.828-7.588a17.559 17.559 0 0 0 -16.649-9.632l-8.546.471a5.627 5.627 0 0 1 -3.368-.912l-7.068-4.667a17.53 17.53 0 0 0 -19.346 0l-7.069 4.667a5.529 5.529 0 0 1 -3.367.912l-8.549-.471a17.561 17.561 0 0 0 -16.648 9.633l-3.826 7.586a5.629 5.629 0 0 1 -2.461 2.466l-7.579 3.833a17.589 17.589 0 0 0 -9.616 16.66l.471 8.559a5.638 5.638 0 0 1 -.914 3.387l-4.66 7.078a17.585 17.585 0 0 0 0 19.353l4.661 7.08a5.634 5.634 0 0 1 .913 3.383l-.471 8.561a17.589 17.589 0 0 0 9.617 16.661l7.576 3.832a5.629 5.629 0 0 1 2.462 2.465l3.823 7.587a15.137 15.137 0 0 0 4.406 5.56v9.871h-132.94a23.025 23.025 0 0 1 -22.851-23.075z"/><path d="m153.934 126h102.3a6 6 0 0 0 0-12h-102.3a6 6 0 1 0 0 12z"/><path d="m293.722 126h64.344a6 6 0 0 0 0-12h-64.344a6 6 0 0 0 0 12z"/><path d="m153.934 165h38.607a6 6 0 0 0 0-12h-38.607a6 6 0 1 0 0 12z"/><path d="m358.066 153h-128.043a6 6 0 0 0 0 12h128.043a6 6 0 1 0 0-12z"/><path d="m153.934 203h62.346a6 6 0 0 0 0-12h-62.346a6 6 0 1 0 0 12z"/><path d="m358.066 191h-102.952a6 6 0 0 0 0 12h102.952a6 6 0 1 0 0-12z"/><path d="m153.934 242h38.607a6 6 0 0 0 0-12h-38.607a6 6 0 1 0 0 12z"/><path d="m358.066 230h-128.043a6 6 0 0 0 0 12h128.043a6 6 0 1 0 0-12z"/><path d="m130 385.728a6 6 0 0 0 6-6v-66.616a6 6 0 0 0 -12 0v66.616a6 6 0 0 0 6 6z"/><path d="m130 301.353a6 6 0 0 0 6-6v-3.2a6 6 0 0 0 -12 0v3.2a6 6 0 0 0 6 6z"/><path d="m336 324.246a6 6 0 0 0 -4.842-4.082l-13.045-1.9-5.836-11.841a6 6 0 0 0 -10.763 0l-5.836 11.841-13.044 1.9a6 6 0 0 0 -3.324 10.236l9.444 9.219-2.231 13.02a6 6 0 0 0 8.709 6.322l11.666-6.142 11.666 6.142a6 6 0 0 0 8.709-6.322l-2.23-13.02 9.445-9.219a6 6 0 0 0 1.512-6.154zm-21.6 8.982a6 6 0 0 0 -1.722 5.306l.709 4.137-3.7-1.947a6 6 0 0 0 -5.589 0l-3.7 1.947.709-4.137a6 6 0 0 0 -1.722-5.306l-3.01-2.938 4.151-.6a6 6 0 0 0 4.518-3.286l1.848-3.751 1.849 3.751a6 6 0 0 0 4.518 3.286l4.151.6z"/><path d="m310 429h-6a6 6 0 0 0 0 12h6a6 6 0 0 0 0-12z"/><path d="m310 413h-6a6 6 0 0 0 0 12h6a6 6 0 0 0 0-12z"/><path d="m310 445h-6a6 6 0 0 0 0 12h6a6 6 0 0 0 0-12z"/><path d="m306.9 280.017c-21.168 0-39.475 12.767-48.016 30.5a5.951 5.951 0 0 0 10.764 5.078 40.864 40.864 0 0 1 37.252-23.578 41.216 41.216 0 1 1 -36.535 60.125 5.918 5.918 0 0 0 -5.283-3.142h-.123a5.941 5.941 0 0 0 -5.343 8.582 53.18 53.18 0 1 0 47.284-77.565z"/></g></svg>