<svg xmlns="http://www.w3.org/2000/svg" xmlns:xlink="http://www.w3.org/1999/xlink" width="10" height="11.41" viewBox="0 0 10 11.41"><defs><clipPath id="a"><path d="M127.111,107.6a.761.761,0,0,1-.685.44h-1.971v3.823a.762.762,0,0,1-.758.765h-3.032a.762.762,0,0,1-.758-.765v-3.823h-1.971a.761.761,0,0,1-.685-.44.781.781,0,0,1,.1-.807l1.267-1.584L121,102.229l.594-.74a.774.774,0,0,1,1.176,0l.594.74,3.062,3.829.588.734A.781.781,0,0,1,127.111,107.6Z" transform="translate(-71.182 -96.232)" fill="#69d9c3"/></clipPath></defs><g transform="translate(-46 -4.987)" clip-path="url(#a)"><g transform="translate(-87.456 -146.122)"><path d="M181.643,155.216,143.7,108.173a7.04,7.04,0,0,0-10.514,0L95.252,155.216a6.854,6.854,0,0,0-.867,7.154,6.757,6.757,0,0,0,6.124,3.848h17.614v34.849a6.777,6.777,0,0,0,6.775,6.775H152a6.777,6.777,0,0,0,6.775-6.775V166.218h17.614a6.74,6.74,0,0,0,5.257-11Zm-36.421-2.547v41.624H131.673V152.669H114.709l23.738-29.429,23.738,29.429Z" transform="translate(0)" fill="#2f4159"/></g><path d="M127.111,107.6a.761.761,0,0,1-.685.44h-1.971v3.823a.762.762,0,0,1-.758.765h-3.032a.762.762,0,0,1-.758-.765v-3.823h-1.971a.761.761,0,0,1-.685-.44.781.781,0,0,1,.1-.807l1.267-1.584L121,102.229l.594-.74a.774.774,0,0,1,1.176,0l.594.74,3.062,3.829.588.734A.781.781,0,0,1,127.111,107.6Z" transform="translate(-71.17 -96.205)" fill="#69d9c3"/></g></svg>